<svg xmlns="http://www.w3.org/2000/svg" width="1700" height="1570" viewBox="0 0 1700 1570"><rect width="100%" height="100%" fill="#102b32"/><text x="48" y="59.540000000000006" font-family="DejaVu Sans,sans-serif" font-size="34" font-weight="700" text-anchor="start" fill="#f3eee3">ONE HOME, ONE TOWN · RIVERSIDE</text><text x="48" y="94.58" font-family="DejaVu Sans,sans-serif" font-size="18" font-weight="400" text-anchor="start" fill="#a9c4c4">Revised spatial plan • market behind StudentHub • public riverside garden • schematic, not finished art</text><rect x="48.0" y="142.0" width="1198.08" height="1231.3600000000001" rx="72" fill="#294f46" stroke="none" stroke-width="0"/><rect x="414.08000000000004" y="491.44" width="515.84" height="599.04" rx="60" fill="#c4bfa7" stroke="none" stroke-width="0"/><polyline points="1181.6000000000001,142.0 1160.8,339.6 1197.2,537.2 1181.6000000000001,703.6 1207.6000000000001,885.6 1155.6000000000001,1083.2 1197.2,1244.4 1186.8,1373.3600000000001" fill="none" stroke="#eadcc0" stroke-width="102" stroke-linecap="round" stroke-linejoin="round"/><polyline points="1181.6000000000001,142.0 1160.8,339.6 1197.2,537.2 1181.6000000000001,703.6 1207.6000000000001,885.6 1155.6000000000001,1083.2 1197.2,1244.4 1186.8,1373.3600000000001" fill="none" stroke="#65b9c0" stroke-width="88" stroke-linecap="round" stroke-linejoin="round"/><polyline points="1192.0,142.0 1171.2,339.6 1207.6000000000001,537.2 1192.0,703.6 1218.0,885.6 1166.0,1083.2 1207.6000000000001,1244.4 1197.2,1373.3600000000001" fill="none" stroke="#91ced0" stroke-width="5" stroke-linecap="round" stroke-linejoin="round"/><circle cx="110.4" cy="194.0" r="39.52" fill="#4b7761" stroke="none" stroke-width="1"/><circle cx="999.6" cy="208.56" r="57.2" fill="#4b7761" stroke="none" stroke-width="1"/><circle cx="1101.0" cy="563.2" r="34.32" fill="#4b7761" stroke="none" stroke-width="1"/><circle cx="214.4" cy="932.4" r="80.60000000000001" fill="#4b7761" stroke="none" stroke-width="1"/><circle cx="1051.6" cy="1130.0" r="65.0" fill="#4b7761" stroke="none" stroke-width="1"/><circle cx="152.0" cy="1254.8" r="67.60000000000001" fill="#4b7761" stroke="none" stroke-width="1"/><circle cx="1036.0" cy="1286.0" r="62.400000000000006" fill="#4b7761" stroke="none" stroke-width="1"/><polyline points="663.6800000000001,1256.88 663.6800000000001,541.36" fill="none" stroke="#c4bfa7" stroke-width="99" stroke-linecap="round" stroke-linejoin="round"/><polyline points="380.8,599.6 963.2,599.6" fill="none" stroke="#c4bfa7" stroke-width="49" stroke-linecap="round" stroke-linejoin="round"/><polyline points="430.72,508.08000000000004 430.72,774.32" fill="none" stroke="#c4bfa7" stroke-width="49" stroke-linecap="round" stroke-linejoin="round"/><polyline points="830.08,474.8 929.9200000000001,474.8" fill="none" stroke="#c4bfa7" stroke-width="49" stroke-linecap="round" stroke-linejoin="round"/><polyline points="430.72,599.6 430.72,275.12 830.08,275.12" fill="none" stroke="#c4bfa7" stroke-width="49" stroke-linecap="round" stroke-linejoin="round"/><polyline points="430.72,275.12 247.68,275.12" fill="none" stroke="#c4bfa7" stroke-width="49" stroke-linecap="round" stroke-linejoin="round"/><rect x="380.8" y="275.12" width="532.48" height="532.48" rx="0" fill="none" stroke="#e8b566" stroke-width="3"/><text x="387.04" y="292.7" font-family="DejaVu Sans,sans-serif" font-size="14" font-weight="700" text-anchor="start" fill="#e8b566">ARRIVAL + WORKPLACE STUDY</text><rect x="464.0" y="325.04" width="366.08000000000004" height="216.32" rx="8" fill="#b9d3c0" stroke="#eadcc0" stroke-width="7"/><rect x="730.24" y="341.68" width="83.20000000000005" height="99.83999999999997" rx="4" fill="#b8dddf" stroke="#17383d" stroke-width="2"/><rect x="488.96000000000004" y="341.68" width="216.31999999999994" height="33.28000000000003" rx="4" fill="#4b7761" stroke="none" stroke-width="0"/><text x="614.8000000000001" y="416.24" font-family="DejaVu Sans,sans-serif" font-size="24" font-weight="700" text-anchor="middle" fill="#17383d">STUDENTHUB</text><text x="614.8000000000001" y="436.8" font-family="DejaVu Sans,sans-serif" font-size="16" font-weight="700" text-anchor="middle" fill="#17383d">shared team core</text><rect x="513.9200000000001" y="449.84000000000003" width="44.0" height="16.0" rx="3" fill="#e8b566" stroke="#17383d" stroke-width="1"/><circle cx="522.9200000000001" cy="475.84000000000003" r="5" fill="#17383d" stroke="none" stroke-width="1"/><circle cx="548.9200000000001" cy="475.84000000000003" r="5" fill="#17383d" stroke="none" stroke-width="1"/><rect x="647.04" y="449.84000000000003" width="44.0" height="16.0" rx="3" fill="#e8b566" stroke="#17383d" stroke-width="1"/><circle cx="656.04" cy="475.84000000000003" r="5" fill="#17383d" stroke="none" stroke-width="1"/><circle cx="682.04" cy="475.84000000000003" r="5" fill="#17383d" stroke="none" stroke-width="1"/><rect x="696.96" y="491.44" width="66.55999999999995" height="24.960000000000093" rx="4" fill="#e8b566" stroke="#17383d" stroke-width="1"/><text x="724.0" y="533.17" font-family="DejaVu Sans,sans-serif" font-size="13" font-weight="700" text-anchor="middle" fill="#17383d">reception</text><rect x="480.64" y="487.28000000000003" width="83.20000000000005" height="33.279999999999916" rx="5" fill="#bc989a" stroke="#eadcc0" stroke-width="2"/><rect x="480.64" y="487.28000000000003" width="24.960000000000036" height="33.279999999999916" rx="3" fill="#b9d3c0" stroke="#17383d" stroke-width="1"/><polyline points="663.6800000000001,516.4000000000001 663.6800000000001,553.84" fill="none" stroke="#c4bfa7" stroke-width="49" stroke-linecap="round" stroke-linejoin="round"/><rect x="863.36" y="325.04" width="232.95999999999992" height="199.68" rx="8" fill="#b8dddf" stroke="#eadcc0" stroke-width="6"/><rect x="880.0" y="341.68" width="83.20000000000005" height="66.56" rx="4" fill="#b9d3c0" stroke="#17383d" stroke-width="1"/><rect x="979.84" y="341.68" width="99.84000000000003" height="66.56" rx="4" fill="#b9d3c0" stroke="#17383d" stroke-width="1"/><text x="984.0" y="447.26" font-family="DejaVu Sans,sans-serif" font-size="18" font-weight="700" text-anchor="middle" fill="#17383d">MEETING GALLERY</text><text x="979.84" y="467.65" font-family="DejaVu Sans,sans-serif" font-size="13" font-weight="700" text-anchor="middle" fill="#17383d">2 quiet + conference</text><rect x="81.28" y="374.96000000000004" width="316.15999999999997" height="465.91999999999996" rx="8" fill="#ded0ac" stroke="#eadcc0" stroke-width="7"/><rect x="97.92" y="391.6" width="282.88" height="183.03999999999996" rx="4" fill="#eadcc0" stroke="#17383d" stroke-width="2"/><text x="239.36" y="423.63" font-family="DejaVu Sans,sans-serif" font-size="19" font-weight="700" text-anchor="middle" fill="#17383d">CLASSROOM</text><rect x="181.12" y="437.36" width="116.48000000000002" height="20.80000000000001" rx="4" fill="#4b7761" stroke="#17383d" stroke-width="1"/><rect x="131.2" y="483.12" width="25.0" height="13.0" rx="3" fill="#e8b566" stroke="#17383d" stroke-width="1"/><rect x="131.2" y="524.72" width="25.0" height="13.0" rx="3" fill="#e8b566" stroke="#17383d" stroke-width="1"/><rect x="197.76" y="483.12" width="25.0" height="13.0" rx="3" fill="#e8b566" stroke="#17383d" stroke-width="1"/><rect x="197.76" y="524.72" width="25.0" height="13.0" rx="3" fill="#e8b566" stroke="#17383d" stroke-width="1"/><rect x="264.32" y="483.12" width="25.0" height="13.0" rx="3" fill="#e8b566" stroke="#17383d" stroke-width="1"/><rect x="264.32" y="524.72" width="25.0" height="13.0" rx="3" fill="#e8b566" stroke="#17383d" stroke-width="1"/><rect x="330.88" y="483.12" width="25.0" height="13.0" rx="3" fill="#e8b566" stroke="#17383d" stroke-width="1"/><rect x="330.88" y="524.72" width="25.0" height="13.0" rx="3" fill="#e8b566" stroke="#17383d" stroke-width="1"/><rect x="97.92" y="607.9200000000001" width="282.88" height="216.31999999999994" rx="4" fill="#eadcc0" stroke="#17383d" stroke-width="2"/><text x="239.36" y="639.9499999999999" font-family="DejaVu Sans,sans-serif" font-size="19" font-weight="700" text-anchor="middle" fill="#17383d">GREAT HALL</text><rect x="147.84" y="649.52" width="183.04" height="41.60000000000002" rx="4" fill="#4b7761" stroke="#17383d" stroke-width="2"/><rect x="228.96" y="678.64" width="18.0" height="13.0" rx="3" fill="#e8b566" stroke="#17383d" stroke-width="1"/><rect x="147.84" y="724.4" width="12.0" height="12.0" rx="2" fill="#17383d" stroke="none" stroke-width="0"/><rect x="147.84" y="757.6800000000001" width="12.0" height="12.0" rx="2" fill="#17383d" stroke="none" stroke-width="0"/><rect x="147.84" y="790.96" width="12.0" height="12.0" rx="2" fill="#17383d" stroke="none" stroke-width="0"/><rect x="189.44" y="724.4" width="12.0" height="12.0" rx="2" fill="#17383d" stroke="none" stroke-width="0"/><rect x="189.44" y="757.6800000000001" width="12.0" height="12.0" rx="2" fill="#17383d" stroke="none" stroke-width="0"/><rect x="189.44" y="790.96" width="12.0" height="12.0" rx="2" fill="#17383d" stroke="none" stroke-width="0"/><rect x="289.28" y="724.4" width="12.0" height="12.0" rx="2" fill="#17383d" stroke="none" stroke-width="0"/><rect x="289.28" y="757.6800000000001" width="12.0" height="12.0" rx="2" fill="#17383d" stroke="none" stroke-width="0"/><rect x="289.28" y="790.96" width="12.0" height="12.0" rx="2" fill="#17383d" stroke="none" stroke-width="0"/><rect x="330.88" y="724.4" width="12.0" height="12.0" rx="2" fill="#17383d" stroke="none" stroke-width="0"/><rect x="330.88" y="757.6800000000001" width="12.0" height="12.0" rx="2" fill="#17383d" stroke="none" stroke-width="0"/><rect x="330.88" y="790.96" width="12.0" height="12.0" rx="2" fill="#17383d" stroke="none" stroke-width="0"/><polyline points="380.8,533.04 430.72,533.04" fill="none" stroke="#c4bfa7" stroke-width="33" stroke-linecap="round" stroke-linejoin="round"/><polyline points="380.8,741.04 430.72,741.04" fill="none" stroke="#c4bfa7" stroke-width="33" stroke-linecap="round" stroke-linejoin="round"/><circle cx="597.12" cy="649.52" r="54.08" fill="#eadcc0" stroke="#17383d" stroke-width="3"/><circle cx="597.12" cy="649.52" r="41.6" fill="#65b9c0" stroke="#17383d" stroke-width="2"/><circle cx="597.12" cy="649.52" r="12.48" fill="#e8b566" stroke="none" stroke-width="1"/><rect x="746.88" y="632.88" width="116.48000000000002" height="83.20000000000005" rx="16" fill="#bc989a" stroke="#eadcc0" stroke-width="3"/><rect x="755.2" y="641.2" width="99.84000000000003" height="20.799999999999955" rx="6" fill="#b9d3c0" stroke="#17383d" stroke-width="2"/><rect x="755.2" y="674.48" width="20.799999999999955" height="33.27999999999997" rx="6" fill="#b9d3c0" stroke="#17383d" stroke-width="2"/><rect x="834.24" y="674.48" width="20.800000000000068" height="33.27999999999997" rx="6" fill="#b9d3c0" stroke="#17383d" stroke-width="2"/><text x="805.12" y="746.1400000000001" font-family="DejaVu Sans,sans-serif" font-size="14" font-weight="700" text-anchor="middle" fill="#17383d">couches + carpet</text><rect x="547.2" y="175.28" width="66.55999999999995" height="58.24000000000001" rx="3" fill="#ded0ac" stroke="#eadcc0" stroke-width="4"/><rect x="547.2" y="175.28" width="66.55999999999995" height="14.560000000000002" rx="4" fill="#4b7761" stroke="none" stroke-width="0"/><rect x="696.96" y="175.28" width="66.55999999999995" height="58.24000000000001" rx="3" fill="#ded0ac" stroke="#eadcc0" stroke-width="4"/><rect x="696.96" y="175.28" width="66.55999999999995" height="14.560000000000002" rx="4" fill="#4b7761" stroke="none" stroke-width="0"/><text x="655.36" y="258.44" font-family="DejaVu Sans,sans-serif" font-size="16" font-weight="700" text-anchor="middle" fill="#17383d">SMALL MARKET · BACK LANE</text><circle cx="131.2" cy="258.48" r="31" fill="#b8dddf" stroke="#e8b566" stroke-width="3"/><circle cx="131.2" cy="258.48" r="17" fill="#102b32" stroke="none" stroke-width="1"/><circle cx="239.36" cy="216.88" r="31" fill="#b8dddf" stroke="#e8b566" stroke-width="3"/><circle cx="239.36" cy="216.88" r="17" fill="#102b32" stroke="none" stroke-width="1"/><circle cx="339.2" cy="258.48" r="31" fill="#b8dddf" stroke="#e8b566" stroke-width="3"/><circle cx="339.2" cy="258.48" r="17" fill="#102b32" stroke="none" stroke-width="1"/><text x="231.04000000000002" y="323.44" font-family="DejaVu Sans,sans-serif" font-size="16" font-weight="700" text-anchor="middle" fill="#17383d">PORTAL GARDEN</text><rect x="464.0" y="857.52" width="104.0" height="91.5200000000001" rx="24" fill="#4b7761" stroke="#294f46" stroke-width="3"/><rect x="759.36" y="857.52" width="108.15999999999997" height="91.5200000000001" rx="24" fill="#4b7761" stroke="#294f46" stroke-width="3"/><rect x="476.48" y="994.8000000000001" width="91.51999999999998" height="58.239999999999895" rx="24" fill="#4b7761" stroke="#294f46" stroke-width="3"/><rect x="763.52" y="994.8000000000001" width="91.5200000000001" height="58.239999999999895" rx="24" fill="#4b7761" stroke="#294f46" stroke-width="3"/><rect x="555.52" y="878.32" width="16.639999999999986" height="49.91999999999996" rx="4" fill="#eadcc0" stroke="#17383d" stroke-width="1"/><rect x="746.88" y="886.64" width="16.639999999999986" height="49.92000000000007" rx="4" fill="#eadcc0" stroke="#17383d" stroke-width="1"/><text x="663.6800000000001" y="1060.5700000000002" font-family="DejaVu Sans,sans-serif" font-size="17" font-weight="700" text-anchor="middle" fill="#17383d">LANTERN AVENUE</text><polyline points="869.6,761.84 971.52,761.84 1054.72,761.84 1100.48,724.4 1100.48,1057.2" fill="none" stroke="#c4bfa7" stroke-width="49" stroke-linecap="round" stroke-linejoin="round"/><polyline points="971.52,761.84 934.08,874.1600000000001 971.52,961.52 1067.2,961.52 1100.48,919.9200000000001" fill="none" stroke="#c4bfa7" stroke-width="49" stroke-linecap="round" stroke-linejoin="round"/><circle cx="979.84" cy="632.88" r="47.84" fill="#4b7761" stroke="none" stroke-width="1"/><circle cx="1013.12" cy="1048.88" r="49.4" fill="#4b7761" stroke="none" stroke-width="1"/><circle cx="913.28" cy="1015.6" r="36.4" fill="#4b7761" stroke="none" stroke-width="1"/><circle cx="1083.8400000000001" cy="662.0" r="28.080000000000002" fill="#4b7761" stroke="none" stroke-width="1"/><circle cx="1013.12" cy="874.1600000000001" r="97.76" fill="#c4bfa7" stroke="#eadcc0" stroke-width="3"/><circle cx="1013.12" cy="874.1600000000001" r="31.200000000000003" fill="#eadcc0" stroke="#17383d" stroke-width="2"/><circle cx="1013.12" cy="874.1600000000001" r="18.72" fill="#b47144" stroke="#17383d" stroke-width="2"/><circle cx="1013.12" cy="874.1600000000001" r="9.36" fill="#e8b566" stroke="none" stroke-width="1"/><rect x="975.6800000000001" y="803.44" width="74.87999999999988" height="16.639999999999986" rx="5" fill="#b9d3c0" stroke="#17383d" stroke-width="2"/><rect x="942.4" y="857.52" width="16.6400000000001" height="58.24000000000001" rx="5" fill="#b9d3c0" stroke="#17383d" stroke-width="2"/><rect x="1067.2" y="857.52" width="16.6400000000001" height="58.24000000000001" rx="5" fill="#b9d3c0" stroke="#17383d" stroke-width="2"/><rect x="975.6800000000001" y="928.24" width="74.87999999999988" height="16.639999999999986" rx="5" fill="#b9d3c0" stroke="#17383d" stroke-width="2"/><text x="1013.12" y="982.8000000000001" font-family="DejaVu Sans,sans-serif" font-size="16" font-weight="700" text-anchor="middle" fill="#17383d">FIREPIT HANGOUT</text><text x="1013.12" y="1001.17" font-family="DejaVu Sans,sans-serif" font-size="13" font-weight="700" text-anchor="middle" fill="#17383d">local crackle · proposed</text><text x="1013.12" y="1108.1799999999998" font-family="DejaVu Sans,sans-serif" font-size="18" font-weight="700" text-anchor="middle" fill="#17383d">RIVERSIDE GARDEN</text><rect x="1079.68" y="1073.8400000000001" width="16.639999999999873" height="58.23999999999978" rx="3" fill="#eadcc0" stroke="#17383d" stroke-width="2"/><rect x="513.9200000000001" y="1123.76" width="299.52" height="166.4000000000001" rx="12" fill="#eadcc0" stroke="#e8b566" stroke-width="4"/><rect x="497.28000000000003" y="1098.8000000000002" width="83.19999999999999" height="99.83999999999992" rx="7" fill="#4b7761" stroke="#eadcc0" stroke-width="4"/><rect x="746.88" y="1098.8000000000002" width="83.20000000000005" height="99.83999999999992" rx="7" fill="#4b7761" stroke="#eadcc0" stroke-width="4"/><rect x="580.48" y="1107.12" width="166.39999999999998" height="24.960000000000036" rx="4" fill="#e8b566" stroke="none" stroke-width="0"/><text x="663.6800000000001" y="1218.19" font-family="DejaVu Sans,sans-serif" font-size="19" font-weight="700" text-anchor="middle" fill="#17383d">MONUMENTAL GATE</text><text x="663.6800000000001" y="1246.15" font-family="DejaVu Sans,sans-serif" font-size="15" font-weight="700" text-anchor="middle" fill="#17383d">arrival forecourt</text><polyline points="663.6800000000001,1260.0 663.6800000000001,1046.8000000000002 663.6800000000001,786.8000000000001 663.6800000000001,558.0" fill="none" stroke="#e8b566" stroke-width="5" stroke-linecap="round" stroke-linejoin="round"/><polyline points="669.4331064632505,568.5309907426845 663.6800000000001,558.0 657.9268935367496,568.5309907426845" fill="none" stroke="#e8b566" stroke-width="5" stroke-linecap="round" stroke-linejoin="round"/><polyline points="620.0,599.6 430.72,599.6 430.72,741.04 397.44,741.04" fill="none" stroke="#65b9c0" stroke-width="4" stroke-linecap="round" stroke-linejoin="round"/><polyline points="407.9709907426845,735.2868935367495 397.44,741.04 407.9709907426845,746.7931064632504" fill="none" stroke="#65b9c0" stroke-width="4" stroke-linecap="round" stroke-linejoin="round"/><polyline points="430.72,572.56 430.72,275.12 513.9200000000001,275.12" fill="none" stroke="#65b9c0" stroke-width="4" stroke-linecap="round" stroke-linejoin="round"/><polyline points="503.3890092573156,280.87310646325045 513.9200000000001,275.12 503.3890092573156,269.36689353674956" fill="none" stroke="#65b9c0" stroke-width="4" stroke-linecap="round" stroke-linejoin="round"/><polyline points="888.32,761.84 958.0,761.84 958.0,781.6" fill="none" stroke="#65b9c0" stroke-width="4" stroke-linecap="round" stroke-linejoin="round"/><polyline points="952.2468935367496,771.0690092573155 958.0,781.6 963.7531064632504,771.0690092573155" fill="none" stroke="#65b9c0" stroke-width="4" stroke-linecap="round" stroke-linejoin="round"/><circle cx="833.2" cy="1124.8000000000002" r="15" fill="#102b32" stroke="#e8b566" stroke-width="2"/><text x="833.2" y="1128.5700000000002" font-family="DejaVu Sans,sans-serif" font-size="17" font-weight="700" text-anchor="middle" fill="#e8b566">1</text><circle cx="651.2" cy="646.4000000000001" r="15" fill="#102b32" stroke="#e8b566" stroke-width="2"/><text x="651.2" y="650.1700000000001" font-family="DejaVu Sans,sans-serif" font-size="17" font-weight="700" text-anchor="middle" fill="#e8b566">2</text><circle cx="466.6" cy="324.0" r="15" fill="#102b32" stroke="#e8b566" stroke-width="2"/><text x="466.6" y="327.77" font-family="DejaVu Sans,sans-serif" font-size="17" font-weight="700" text-anchor="middle" fill="#e8b566">3</text><circle cx="937.2" cy="322.96000000000004" r="15" fill="#102b32" stroke="#e8b566" stroke-width="2"/><text x="937.2" y="326.73" font-family="DejaVu Sans,sans-serif" font-size="17" font-weight="700" text-anchor="middle" fill="#e8b566">4</text><circle cx="94.80000000000001" cy="374.96000000000004" r="15" fill="#102b32" stroke="#e8b566" stroke-width="2"/><text x="94.80000000000001" y="378.73" font-family="DejaVu Sans,sans-serif" font-size="17" font-weight="700" text-anchor="middle" fill="#e8b566">5</text><circle cx="95.32" cy="605.3199999999999" r="15" fill="#102b32" stroke="#e8b566" stroke-width="2"/><text x="95.32" y="609.0899999999999" font-family="DejaVu Sans,sans-serif" font-size="17" font-weight="700" text-anchor="middle" fill="#e8b566">6</text><circle cx="792.64" cy="175.28" r="15" fill="#102b32" stroke="#e8b566" stroke-width="2"/><text x="792.64" y="179.05" font-family="DejaVu Sans,sans-serif" font-size="17" font-weight="700" text-anchor="middle" fill="#e8b566">7</text><circle cx="1013.12" cy="761.84" r="15" fill="#102b32" stroke="#e8b566" stroke-width="2"/><text x="1013.12" y="765.61" font-family="DejaVu Sans,sans-serif" font-size="17" font-weight="700" text-anchor="middle" fill="#e8b566">8</text><circle cx="364.16" cy="225.2" r="15" fill="#102b32" stroke="#e8b566" stroke-width="2"/><text x="364.16" y="228.97" font-family="DejaVu Sans,sans-serif" font-size="17" font-weight="700" text-anchor="middle" fill="#e8b566">9</text><text x="1285" y="166.58" font-family="DejaVu Sans,sans-serif" font-size="18" font-weight="700" text-anchor="start" fill="#e8b566">A SMALL TEAM STAYS TOGETHER</text><text x="1285" y="207.77" font-family="DejaVu Sans,sans-serif" font-size="17" font-weight="400" text-anchor="start" fill="#a9c4c4">The compact team core stays together.</text><text x="1285" y="232.77" font-family="DejaVu Sans,sans-serif" font-size="17" font-weight="400" text-anchor="start" fill="#a9c4c4">Arrival opens to a fountain and gardens.</text><text x="1285" y="257.77" font-family="DejaVu Sans,sans-serif" font-size="17" font-weight="400" text-anchor="start" fill="#a9c4c4">Shopping is an optional turn behind HQ.</text><text x="1285" y="329.58" font-family="DejaVu Sans,sans-serif" font-size="18" font-weight="700" text-anchor="start" fill="#f3eee3">1  ARRIVE</text><text x="1285" y="360.96" font-family="DejaVu Sans,sans-serif" font-size="16" font-weight="400" text-anchor="start" fill="#a9c4c4">Giant gate → quiet lantern avenue.</text><text x="1285" y="384.96" font-family="DejaVu Sans,sans-serif" font-size="16" font-weight="400" text-anchor="start" fill="#a9c4c4">No market frontage competes with</text><text x="1285" y="408.96" font-family="DejaVu Sans,sans-serif" font-size="16" font-weight="400" text-anchor="start" fill="#a9c4c4">the fountain or StudentHub door.</text><text x="1285" y="455.58" font-family="DejaVu Sans,sans-serif" font-size="18" font-weight="700" text-anchor="start" fill="#f3eee3">2  GATHER</text><text x="1285" y="486.96" font-family="DejaVu Sans,sans-serif" font-size="16" font-weight="400" text-anchor="start" fill="#a9c4c4">Off-axis fountain and lounge remain</text><text x="1285" y="510.96" font-family="DejaVu Sans,sans-serif" font-size="16" font-weight="400" text-anchor="start" fill="#a9c4c4">the everyday town meeting point.</text><text x="1285" y="534.96" font-family="DejaVu Sans,sans-serif" font-size="16" font-weight="400" text-anchor="start" fill="#a9c4c4">A clear path reaches reception.</text><text x="1285" y="581.58" font-family="DejaVu Sans,sans-serif" font-size="18" font-weight="700" text-anchor="start" fill="#f3eee3">3  WORK TOGETHER</text><text x="1285" y="612.96" font-family="DejaVu Sans,sans-serif" font-size="16" font-weight="400" text-anchor="start" fill="#a9c4c4">Four daily seats in one visible core.</text><text x="1285" y="636.96" font-family="DejaVu Sans,sans-serif" font-size="16" font-weight="400" text-anchor="start" fill="#a9c4c4">Reception, glass meeting and lounge</text><text x="1285" y="660.96" font-family="DejaVu Sans,sans-serif" font-size="16" font-weight="400" text-anchor="start" fill="#a9c4c4">stay close; tools share the perimeter.</text><text x="1285" y="707.58" font-family="DejaVu Sans,sans-serif" font-size="18" font-weight="700" text-anchor="start" fill="#f3eee3">4  QUIET CONVERSATIONS</text><text x="1285" y="738.96" font-family="DejaVu Sans,sans-serif" font-size="16" font-weight="400" text-anchor="start" fill="#a9c4c4">Attached meeting gallery supports</text><text x="1285" y="762.96" font-family="DejaVu Sans,sans-serif" font-size="16" font-weight="400" text-anchor="start" fill="#a9c4c4">quiet calls and conference meetings.</text><text x="1285" y="786.96" font-family="DejaVu Sans,sans-serif" font-size="16" font-weight="400" text-anchor="start" fill="#a9c4c4">No separate department buildings.</text><text x="1285" y="833.58" font-family="DejaVu Sans,sans-serif" font-size="18" font-weight="700" text-anchor="start" fill="#f3eee3">5–6  LEARN / CONVENE</text><text x="1285" y="864.96" font-family="DejaVu Sans,sans-serif" font-size="16" font-weight="400" text-anchor="start" fill="#a9c4c4">One civic pavilion holds classroom,</text><text x="1285" y="888.96" font-family="DejaVu Sans,sans-serif" font-size="16" font-weight="400" text-anchor="start" fill="#a9c4c4">stage, podium and facing audience.</text><text x="1285" y="912.96" font-family="DejaVu Sans,sans-serif" font-size="16" font-weight="400" text-anchor="start" fill="#a9c4c4">Public access bypasses the office.</text><text x="1285" y="959.58" font-family="DejaVu Sans,sans-serif" font-size="18" font-weight="700" text-anchor="start" fill="#f3eee3">7  SMALL BACK-LANE MARKET</text><text x="1285" y="990.96" font-family="DejaVu Sans,sans-serif" font-size="16" font-weight="400" text-anchor="start" fill="#a9c4c4">Two modest booths behind the Hub.</text><text x="1285" y="1014.96" font-family="DejaVu Sans,sans-serif" font-size="16" font-weight="400" text-anchor="start" fill="#a9c4c4">An obvious side path reaches them;</text><text x="1285" y="1038.96" font-family="DejaVu Sans,sans-serif" font-size="16" font-weight="400" text-anchor="start" fill="#a9c4c4">the arrival route stays uncluttered.</text><text x="1285" y="1085.58" font-family="DejaVu Sans,sans-serif" font-size="18" font-weight="700" text-anchor="start" fill="#f3eee3">8  RIVERSIDE GARDEN</text><text x="1285" y="1116.96" font-family="DejaVu Sans,sans-serif" font-size="16" font-weight="400" text-anchor="start" fill="#a9c4c4">Public garden, water-edge seating,</text><text x="1285" y="1140.96" font-family="DejaVu Sans,sans-serif" font-size="16" font-weight="400" text-anchor="start" fill="#a9c4c4">firepit circle and local crackle.</text><text x="1285" y="1164.96" font-family="DejaVu Sans,sans-serif" font-size="16" font-weight="400" text-anchor="start" fill="#a9c4c4">An informal conference-break hangout.</text><text x="1285" y="1211.58" font-family="DejaVu Sans,sans-serif" font-size="18" font-weight="700" text-anchor="start" fill="#f3eee3">9  OPTIONAL EXTENSIONS</text><text x="1285" y="1242.96" font-family="DejaVu Sans,sans-serif" font-size="16" font-weight="400" text-anchor="start" fill="#a9c4c4">Portal garden keeps bigger creator,</text><text x="1285" y="1266.96" font-family="DejaVu Sans,sans-serif" font-size="16" font-weight="400" text-anchor="start" fill="#a9c4c4">lab and event rooms within reach.</text><text x="1285" y="1290.96" font-family="DejaVu Sans,sans-serif" font-size="16" font-weight="400" text-anchor="start" fill="#a9c4c4">The team remains in the shared core.</text><polyline points="1285,1340 1650,1340" fill="none" stroke="#4b7761" stroke-width="2" stroke-linecap="round" stroke-linejoin="round"/><text x="1285" y="1372.15" font-family="DejaVu Sans,sans-serif" font-size="15" font-weight="400" text-anchor="start" fill="#a9c4c4">All footprints are proposed relationships.</text><text x="1285" y="1395.15" font-family="DejaVu Sans,sans-serif" font-size="15" font-weight="400" text-anchor="start" fill="#a9c4c4">Fire audio remains a local-zone proposal.</text><text x="1285" y="1418.15" font-family="DejaVu Sans,sans-serif" font-size="15" font-weight="400" text-anchor="start" fill="#a9c4c4">No built features or live services implied.</text><text x="1285" y="1441.15" font-family="DejaVu Sans,sans-serif" font-size="15" font-weight="400" text-anchor="start" fill="#a9c4c4">Top-down furniture scale is being revised.</text><text x="48" y="1463.77" font-family="DejaVu Sans,sans-serif" font-size="17" font-weight="400" text-anchor="start" fill="#a9c4c4">32 px per tile • unchanged 32 px Woka • main routes ≥ 3 tiles • 72 × 74 tile complete site envelope</text></svg>